<?xml version="1.0" standalone="no"?>
<!DOCTYPE svg PUBLIC "-//W3C//DTD SVG 20010904//EN"
 "http://www.w3.org/TR/2001/REC-SVG-20010904/DTD/svg10.dtd">
<svg version="1.0" xmlns="http://www.w3.org/2000/svg"
 width="512.000000pt" height="512.000000pt" viewBox="0 0 512.000000 512.000000"
 preserveAspectRatio="xMidYMid meet">
<metadata>
Created by potrace 1.14, written by Peter Selinger 2001-2017
</metadata>
<g transform="translate(0.000000,512.000000) scale(0.100000,-0.100000)"
fill="#000000" stroke="none">
<path d="M2428 3794 c-168 -40 -320 -169 -399 -338 l-30 -65 -90 6 c-68 5
-104 2 -154 -12 -159 -43 -303 -191 -356 -367 -12 -38 -22 -68 -22 -68 -1 -1
-36 -7 -77 -14 -98 -18 -173 -47 -250 -97 -169 -109 -291 -284 -347 -497 -30
-118 -35 -303 -9 -419 58 -266 220 -482 439 -583 135 -63 56 -60 1482 -60
l1300 0 70 25 c166 59 295 198 361 390 36 105 45 285 20 398 -55 246 -238 439
-457 480 -57 11 -60 13 -54 37 3 14 8 82 12 151 4 97 2 145 -12 210 -58 290
-260 518 -515 584 -72 19 -233 22 -289 5 -30 -8 -36 -7 -49 13 -33 50 -134
135 -199 170 -122 64 -251 82 -375 51z m253 -110 c102 -30 208 -109 272 -204
17 -25 31 -46 32 -48 1 -1 37 7 80 18 185 47 361 3 505 -127 155 -141 245
-377 225 -588 -6 -60 -37 -188 -60 -248 -6 -15 1 -17 73 -17 291 0 505 -249
489 -570 -11 -237 -148 -433 -352 -506 -47 -16 -126 -17 -1320 -15 -1028 2
-1283 5 -1337 16 -195 40 -378 203 -463 413 -76 187 -72 446 10 636 57 134
190 277 315 338 77 38 197 68 270 68 37 0 40 2 40 28 0 49 36 160 71 218 100
166 287 242 456 185 34 -12 64 -21 67 -21 2 0 12 24 21 53 60 184 179 314 340
369 64 22 193 23 266 2z"/>
</g>
</svg>
